{
  "asset": {
    "generator": "Khronos glTF Blender I/O v1.8.19",
    "version": "2.0"
  },
  "scene": 0,
  "scenes": [
    {
      "name": "Scene",
      "nodes": [
        0,
        1
      ]
    }
  ],
  "nodes": [
    {
      "mesh": 0,
      "name": "bottle"
    },
    {
      "mesh": 1,
      "name": "bottle.001"
    }
  ],
  "materials": [
    {
      "name": "textile",
      "pbrMetallicRoughness": {
        "baseColorFactor": [
          0.8196078538894653,
          0.7529411911964417,
          0.6705882549285889,
          1
        ],
        "metallicFactor": 0.25,
        "roughnessFactor": 0.8500000238418579
      }
    },
    {
      "name": "leaves",
      "pbrMetallicRoughness": {
        "baseColorFactor": [
          0.22745098173618317,
          0.5568627715110779,
          0.32156863808631897,
          1
        ],
        "metallicFactor": 0.25,
        "roughnessFactor": 0.8500000238418579
      }
    }
  ],
  "meshes": [
    {
      "name": "bottle",
      "primitives": [
        {
          "attributes": {
            "POSITION": 0,
            "NORMAL": 1,
            "TEXCOORD_0": 2
          },
          "indices": 3,
          "material": 0
        }
      ]
    },
    {
      "name": "bottle.001",
      "primitives": [
        {
          "attributes": {
            "POSITION": 4,
            "NORMAL": 5,
            "TEXCOORD_0": 6
          },
          "indices": 7,
          "material": 1
        }
      ]
    }
  ],
  "accessors": [
    {
      "bufferView": 0,
      "componentType": 5126,
      "count": 40,
      "max": [
        0.07746969163417816,
        0.1860172152519226,
        0.07746969163417816
      ],
      "min": [
        -0.07746969163417816,
        0.05241037905216217,
        -0.07746969163417816
      ],
      "type": "VEC3"
    },
    {
      "bufferView": 1,
      "componentType": 5126,
      "count": 40,
      "type": "VEC3"
    },
    {
      "bufferView": 2,
      "componentType": 5126,
      "count": 40,
      "type": "VEC2"
    },
    {
      "bufferView": 3,
      "componentType": 5123,
      "count": 48,
      "type": "SCALAR"
    },
    {
      "bufferView": 4,
      "componentType": 5126,
      "count": 284,
      "max": [
        0.07746969163417816,
        0.37907907366752625,
        0.07746969163417816
      ],
      "min": [
        -0.07746969163417816,
        0.003421202301979065,
        -0.07746969163417816
      ],
      "type": "VEC3"
    },
    {
      "bufferView": 5,
      "componentType": 5126,
      "count": 284,
      "type": "VEC3"
    },
    {
      "bufferView": 6,
      "componentType": 5126,
      "count": 284,
      "type": "VEC2"
    },
    {
      "bufferView": 7,
      "componentType": 5123,
      "count": 324,
      "type": "SCALAR"
    }
  ],
  "bufferViews": [
    {
      "buffer": 0,
      "byteLength": 480,
      "byteOffset": 0
    },
    {
      "buffer": 0,
      "byteLength": 480,
      "byteOffset": 480
    },
    {
      "buffer": 0,
      "byteLength": 320,
      "byteOffset": 960
    },
    {
      "buffer": 0,
      "byteLength": 96,
      "byteOffset": 1280
    },
    {
      "buffer": 0,
      "byteLength": 3408,
      "byteOffset": 1376
    },
    {
      "buffer": 0,
      "byteLength": 3408,
      "byteOffset": 4784
    },
    {
      "buffer": 0,
      "byteLength": 2272,
      "byteOffset": 8192
    },
    {
      "buffer": 0,
      "byteLength": 648,
      "byteOffset": 10464
    }
  ],
  "buffers": [
    {
      "uri": "bottle_data.bin",
      "byteLength": 11112
    }
  ]
}